<?xml version="1.0" encoding="utf-8"?>
<!-- Generator: Adobe Illustrator 22.0.0, SVG Export Plug-In . SVG Version: 6.00 Build 0)  -->
<svg version="1.1" id="Layer_1" xmlns="http://www.w3.org/2000/svg" xmlns:xlink="http://www.w3.org/1999/xlink" x="0px" y="0px"
	 viewBox="0 0 62 62" style="enable-background:new 0 0 62 62;" xml:space="preserve">
<style type="text/css">
	.st0{fill:#FFFFFF;}
	.st1{opacity:0.21;}
	.st2{fill:#1D1C1A;}
	.st3{fill:#E63D33;}
	.st4{fill:#AE202B;}
	.st5{fill:#FFF7F7;}
	.st6{opacity:0.1;}
	.st7{fill:#7393CB;}
	.st8{fill:#1C1C1A;}
	.st9{fill:#E53E33;}
	.st10{fill:#AD202B;}
	.st11{opacity:0.1;fill:#AD202B;}
	.st12{fill:#C22329;}
	.st13{opacity:0.1;fill:#C22329;}
	.st14{fill:#FDF6F6;}
	.st15{clip-path:url(#SVGID_4_);}
	.st16{fill:#DDE8F4;}
	.st17{display:none;fill:none;stroke:#1C1C1A;stroke-width:2;stroke-miterlimit:10;}
	.st18{fill:#FDF6F6;stroke:#1C1C1A;stroke-width:0.5;stroke-miterlimit:10;}
	.st19{fill:none;stroke:#1C1C1A;stroke-miterlimit:10;}
	.st20{fill:#F7E3E2;}
	.st21{opacity:0.21;fill:#1C1C1A;}
	.st22{fill:#C32228;}
	.st23{fill:#FFF7F7;stroke:#1C1C1A;stroke-width:0.15;stroke-miterlimit:10;}
	.st24{fill:#C0252A;}
	.st25{fill:#0B1C2B;}
	.st26{opacity:0.1;fill:#1C1C1A;}
	.st27{fill:#696969;}
	.st28{fill:#FFF7F7;stroke:#1C1C1A;stroke-width:0.5;stroke-miterlimit:10;}
	.st29{fill:none;}
	.st30{fill:#FFF8F9;stroke:#1D1C1A;stroke-width:0.25;stroke-miterlimit:10;}
	.st31{fill:#E63D32;}
	.st32{clip-path:url(#SVGID_12_);}
	.st33{fill:#E63D32;stroke:#1D1C1A;stroke-width:0.5;stroke-miterlimit:10;}
	.st34{fill:#E63D34;}
	.st35{fill:#2E2E2E;}
	.st36{fill:#AA202B;}
	.st37{clip-path:url(#SVGID_16_);}
	.st38{fill:#FFF8F9;}
	.st39{fill:#231F20;}
	.st40{fill:#242A3C;}
	.st41{clip-path:url(#SVGID_20_);}
	.st42{clip-path:url(#SVGID_22_);}
	.st43{clip-path:url(#SVGID_24_);fill:#1D1C1A;}
	.st44{clip-path:url(#SVGID_26_);}
	.st45{clip-path:url(#SVGID_28_);fill:#1D1C1A;}
	.st46{fill:#FFFFFF;stroke:#1D1C1A;stroke-width:0.5;stroke-miterlimit:10;}
	.st47{fill:#D7E0E5;}
	.st48{opacity:0.5;fill:#D7E0E5;}
	.st49{clip-path:url(#SVGID_32_);}
	.st50{fill:#F6F7F7;stroke:#1C1C1A;stroke-width:0.5;stroke-miterlimit:10;}
	.st51{fill:#FFFFFF;stroke:#231F20;stroke-width:0.5;stroke-miterlimit:10;}
	.st52{fill:#D8E0E6;stroke:#1D1C1A;stroke-width:0.5;stroke-miterlimit:10;}
	.st53{fill:none;stroke:#CDCA87;stroke-width:0.5;stroke-miterlimit:10;}
	.st54{clip-path:url(#SVGID_34_);}
	.st55{clip-path:url(#SVGID_36_);fill:#1D1C1A;}
	.st56{clip-path:url(#SVGID_38_);}
	.st57{clip-path:url(#SVGID_40_);fill:#1D1C1A;}
	.st58{opacity:0.1;fill:#1D1C1A;}
	.st59{clip-path:url(#SVGID_44_);}
	.st60{clip-path:url(#SVGID_46_);fill:#1D1C1A;}
	.st61{clip-path:url(#SVGID_48_);}
	.st62{clip-path:url(#SVGID_50_);fill:#1D1C1A;}
	.st63{clip-path:url(#SVGID_54_);}
	.st64{clip-path:url(#SVGID_56_);}
	.st65{clip-path:url(#SVGID_58_);fill:#1D1C1A;}
	.st66{clip-path:url(#SVGID_60_);}
	.st67{clip-path:url(#SVGID_62_);fill:#1D1C1A;}
	.st68{clip-path:url(#SVGID_66_);}
	.st69{clip-path:url(#SVGID_68_);fill:#1D1C1A;}
	.st70{clip-path:url(#SVGID_70_);}
	.st71{clip-path:url(#SVGID_72_);fill:#1D1C1A;}
	.st72{clip-path:url(#SVGID_76_);}
	.st73{clip-path:url(#SVGID_78_);}
	.st74{clip-path:url(#SVGID_80_);fill:#1D1C1A;}
	.st75{clip-path:url(#SVGID_82_);}
	.st76{clip-path:url(#SVGID_84_);fill:#1D1C1A;}
	.st77{clip-path:url(#SVGID_88_);}
	.st78{fill:#FDF6F6;stroke:#1C1C1A;stroke-width:0.25;stroke-miterlimit:10;}
	.st79{clip-path:url(#SVGID_92_);}
	.st80{clip-path:url(#SVGID_94_);}
</style>
<g>
	<g>
		<g>
			<path class="st1" d="M13.6,32.4 M16.3,31.3 M17.1,31c-0.2,0.1-0.4,0.2-0.7,0.2C16.7,31.2,16.9,31.1,17.1,31z"/>
			<path class="st8" d="M38.5,45v1.5l9.7-0.5c0.1-0.5,0.1-0.9,0.1-1.4c0-0.3,0-0.6-0.1-1c-0.3-2.7-2.4-4.6-4.6-4.6
				c-1.4,0-2.7,0.7-3.6,1.8C39.1,41.8,38.5,43.3,38.5,45z"/>
			<path class="st8" d="M5.5,44.4c0,0.4,0,0.8,0.1,1.2l9.7,0.6v-1.3c0-3.2-2.2-5.9-4.9-5.9c-1.3,0-2.5,0.6-3.3,1.6
				C6.1,41.5,5.5,42.8,5.5,44.4z"/>
			<path class="st31" d="M0.8,40.3c0,0-0.3-1.7,0.2-3.1c0.1-0.2,0.1-0.3,0.2-0.4C1.3,37,1.5,37.3,2,37.4C2.6,37.7,4,37.6,4,37.6
				s0.5-0.3,0.7-0.4c0.2-0.1,1.2-0.6-1.1-0.6c-1.5,0-1.6-0.8-1.9-1.2c0.1-0.2,0.1-0.4,0.2-0.5c0.2-0.7,0.8-1.2,1.4-1.2
				c0.4,0,0.8,0,1.2,0c0.7,0,1.7-0.1,2.7-0.4l1.3,0.4c2.2-1.3,6.4-2.8,8.2-3.4c0,0,0,0,0,0c2.2-0.5,4.9-1.3,9.5-1.1
				c1,0.1,2.1,0.3,3.4,0.7c2.7,1.2,6.8,3.9,7.3,4.3c0.5,0.4,1.9,1,2.8,0.7c0.4-0.1,0.8-0.2,1-0.2c0.9,0.1,3.4,0.3,5.6,0.8
				c2.7,0.7,5.3,1.6,6.7,2.5c1.4,0.9,2,1.7,1.5,3.1l0,0c-0.5,0.6-1.5,1.6-1.7,1.6l0.8,1.6c0,0,0.3,0.5,0.9-0.1l0.1,0.2
				c0,0-0.4,1-1.5,1.6c-1.1,0.5-2.3,0.8-5.1,1.1c0,0-0.1,0-0.1,0c0.5-1.2,0.5-2.2,0.2-3.4c-0.4-1.6-2-3.4-4.4-3.5
				c-2.6-0.1-5.1,1.7-5.1,4.9l0.1,2c0,0,0,0,0,0l-23.3-0.3l0,0v-1.8c-0.1-2.8-2.2-4.7-4.7-4.8c-2.5-0.1-4.5,1.7-5,3.9
				c-0.1,0.7-0.1,1.3,0,2.1l-0.1,0c0,0-2-0.2-4.1-1.2c0,0-0.6-1.2-1-2.3C0.1,41.5,0.3,40.8,0.8,40.3z"/>
			<path class="st10" d="M14.7,42.7c0.3,0,0.5,0,0.5,0L38.6,43c0,0,0,0,0,0l0.3,0c-0.2,0.6-0.4,1.3-0.4,2l0,2l-23.3-0.3
				c0,0,0,0-0.1,0v-1.8C15.2,44.1,15,43.4,14.7,42.7z"/>
			<path class="st10" d="M48.2,44.4c0-0.2-0.2-0.9-0.4-1.3c2.6-0.2,4.1-0.6,5.2-1.2c1.1-0.5,0.4,0,0.4-0.1c0,0,0.1,0,0.1,0
				c0,0.2,1.1-1,1-0.8l0,0c-0.1,0.1-0.1,0.1-0.2,0.2c-0.5,0.6-1.3,1.3-1.5,1.3l0,0c0,0,0,0,0,0l0.9,1.7c0,0,0.3,0.4,0.9-0.2l0,0.3
				c0,0-0.2,0.4-0.5,0.8c-0.2,0.3-0.5,0.5-0.9,0.7c-1.1,0.5-2.3,0.8-5.1,1.1c0,0,0,0,0,0l-0.2,0C48.1,46.1,48.4,45.5,48.2,44.4z"/>
			<path class="st10" d="M1.4,44.9c0,0-0.6-1.2-1-2.3s-0.1-1.8,0.3-2.3c0,0-0.1-0.4-0.1-1c0,0,0,0,0,0c0.4,1.1,1.2,1.8,2.2,2.2
				c1.5,0.5,2.7,0.6,2.7,0.6l0.1,0c0.1,0,0.7,0.1,0.8,0.1c-0.3,0.5-0.7,1.1-0.8,2c-0.1,0.6-0.1,1.4,0,1.9l-0.1,0
				C5.5,46.1,3.5,45.9,1.4,44.9z"/>
			<path class="st5" d="M37.3,36c0,0-18-0.3-26.9-1.8c0,0,8.1-4.3,14.1-4C30.6,30.5,32.8,32.4,37.3,36z"/>
			<path class="st8" d="M36.9,34.2c-0.5-0.4-4.6-3.1-7.3-4.3c4.8,1.5,10.8,4.7,10.8,4.7s0.1,0,0.3,0c-0.2,0-0.5,0.1-1,0.2
				C38.9,35.2,37.5,34.6,36.9,34.2z"/>
			<path class="st8" d="M7.3,33.1C7.5,33.1,7.7,33,8,32.9c1.2-0.4,6.5-2.2,8.8-2.8c-1.8,0.6-5.9,2.1-8.1,3.4L7.3,33.1z"/>
			<path class="st5" d="M4.2,36.3c2.2,0.4,0.7,0.8,0.5,0.9C4.5,37.2,4,37.6,4,37.6s-1.3,0.1-2.1,0c-0.5-0.1-0.8-0.2-0.9-0.4
				c0.2-0.5,0.6-1.4,0.8-1.9C2.1,35.7,2.6,36,4.2,36.3z"/>
			<g>
				<ellipse class="st8" cx="43.3" cy="45.1" rx="4" ry="3.9"/>
				<ellipse class="st5" cx="43.3" cy="45.1" rx="3.1" ry="3.1"/>
				<ellipse class="st8" cx="43.3" cy="45.1" rx="1" ry="1"/>
				<path class="st6" d="M47.3,45.1c0,0.4-0.1,0.7-0.1,1c-0.5-1.7-2-2.9-3.8-2.9c-1.8,0-3.4,1.2-3.8,2.9c-0.1-0.3-0.1-0.7-0.1-1
					c0-2.2,1.8-3.9,4-3.9C45.5,41.2,47.3,43,47.3,45.1z"/>
			</g>
			<g>
				<ellipse class="st8" cx="10.3" cy="45.1" rx="4" ry="3.9"/>
				<ellipse class="st5" cx="10.3" cy="45.1" rx="3.1" ry="3.1"/>
				<ellipse class="st8" cx="10.3" cy="45.1" rx="1" ry="1"/>
				<path class="st6" d="M14.3,45.1c0,0.4-0.1,0.7-0.1,1c-0.5-1.7-2-2.9-3.8-2.9S7,44.5,6.5,46.2c-0.1-0.3-0.1-0.7-0.1-1
					c0-2.2,1.8-3.9,4-3.9C12.5,41.2,14.3,43,14.3,45.1z"/>
			</g>
			<path class="st5" d="M49.5,37.3c0,0-1.3-0.4-0.9,0.5s2.1,2.6,3.1,2.6c1.2,0,1.8-0.1,1.6-0.6C53.1,38.9,51.2,37.7,49.5,37.3z"/>
			<path class="st10" d="M54.5,41l0,3.3c0,0,0,0,0,0.1l-0.6,0.4c-0.1,0.1-0.3,0.1-0.4-0.1l-1.2-1.8c-0.2-0.2-0.1-0.6,0.2-0.7
				L54.5,41z"/>
			<g>
				<g>
					<path class="st10" d="M35.7,33.7l-0.7,0c-0.2,0-0.5,0.1-0.5,0.4c0,0.2,0,0.9,0,0.9c0,0.3,0.1,0.5,0.3,0.5l1.3,0.1l0.2,0.6
						l0.7,0.1c0,0-0.1-1.4-0.9-2.3C36,33.8,35.9,33.7,35.7,33.7z"/>
					<path class="st11" d="M35.7,33.7l-0.7,0c-0.2,0-0.5,0.1-0.5,0.4c0,0.2,0,0.9,0,0.9c0,0.3,0.1,0.5,0.3,0.5l1.3,0.1l0.2,0.6
						l0.7,0c0,0-0.1-1.4-0.8-2.2C36,33.8,35.9,33.7,35.7,33.7z"/>
				</g>
			</g>
		</g>
		<g>
			<g>
				<path class="st31" d="M35.4,21.8l0.8-2.4l6.4,2.1L41.7,24c-0.2,0.5-0.7,0.8-1.2,0.6L36,23.1C35.5,22.9,35.2,22.3,35.4,21.8z"/>
				<path class="st8" d="M53.3,20.9l7.9,2.7c0.5,0.2,0.7,0.7,0.6,1.1l-0.8,2.4c-0.2,0.5-0.7,0.7-1.1,0.6L51.9,25L53.3,20.9z"/>
				<path class="st8" d="M25.1,24.1l0.4-1.1c0.2-0.7,1-1,1.6-0.8l20.9,7c0.7,0.2,1,1,0.8,1.6L48.5,32c-0.2,0.7-1,1-1.6,0.8l-20.9-7
					C25.3,25.5,24.9,24.8,25.1,24.1z"/>
				<polygon class="st31" points="32.9,22 28.5,22.5 46.7,28.7 43.5,25.6 				"/>
				<path class="st8" d="M58.2,27.9l-9.9-3.4c-1.2-0.4-1.9-1.8-1.5-3l0.4-1.2c0.4-1.2,1.8-1.9,3-1.5l9.9,3.4L58.2,27.9z"/>
				<path class="st31" d="M49.5,25l-14.3-4.8c-1.3-0.4-2-1.9-1.6-3.2l0.8-2.3c0.4-1.3,1.9-2,3.2-1.6l13.6,4.6
					c0.4,0.1,0.7,0.6,0.5,1.1L49.5,25z"/>
			</g>
		</g>
	</g>
	<g>
		<path class="st30" d="M12.1,29.3l0.5,0.2l1.1,0.5c0.2,0.1,0.5,0.3,0.7,0.5c0.1,0.1,0.2,0.3,0.3,0.4l0.9,1.5c0.1,0.1,0.3,0.1,0.3,0
			l0.6-1.4c0.1-0.3,0.3-0.5,0.4-0.7c0.2-0.2,0.4-0.4,0.7-0.6l0.4-0.2l0.9-0.6c0.1-0.1,0.1-0.3,0-0.3l-1.5-0.7
			c-0.5-0.2-0.9-0.6-1.2-1l-0.9-1.4c-0.1-0.1-0.3-0.1-0.3,0l-0.7,1.6c-0.2,0.4-0.5,0.8-0.9,1L12.1,29C12,29.1,12,29.3,12.1,29.3z"/>
		<path class="st30" d="M9.4,23.3l1,0.5c0.3,0.1,0.5,0.3,0.6,0.5l0.4,0.6l0.2,0.3c0,0.1,0.2,0.1,0.2,0l0-0.1l0.4-0.8
			c0-0.1,0.1-0.1,0.1-0.2c0.2-0.3,0.4-0.5,0.6-0.7l0.8-0.5c0.1,0,0.1-0.2,0-0.2l-0.9-0.4c-0.3-0.1-0.6-0.4-0.7-0.6l-0.5-0.9
			c0-0.1-0.2-0.1-0.2,0l-0.5,1c-0.1,0.3-0.3,0.5-0.6,0.6l-0.7,0.4l-0.3,0.2C9.3,23.1,9.3,23.2,9.4,23.3z"/>
	</g>
	<path class="st30" d="M43.5,35.8l1,0.5c0.3,0.1,0.5,0.3,0.6,0.5l0.4,0.6l0.2,0.3c0,0.1,0.2,0.1,0.2,0l0-0.1l0.4-0.8
		c0-0.1,0.1-0.1,0.1-0.2c0.2-0.3,0.4-0.5,0.6-0.7l0.8-0.5c0.1,0,0.1-0.2,0-0.2l-0.9-0.4c-0.3-0.1-0.6-0.4-0.7-0.6l-0.5-0.9
		c0-0.1-0.2-0.1-0.2,0l-0.5,1c-0.1,0.3-0.3,0.5-0.6,0.6l-0.7,0.4l-0.3,0.2C43.4,35.6,43.4,35.7,43.5,35.8z"/>
</g>
</svg>
